<svg width="160" height="70" viewBox="0 0 160 70" fill="none" xmlns="http://www.w3.org/2000/svg">
<path d="M102.709 27.5276C109.848 29.5171 116.699 28.2038 118.014 24.5889C119.328 20.9741 114.605 16.4316 107.463 14.4421C100.32 12.4527 92.1583 17.3679 92.1583 17.3679C92.1583 17.3679 95.5709 25.5382 102.709 27.5276ZM108.951 49.8757C109.023 49.8798 109.094 49.867 109.16 49.8384C109.226 49.8098 109.284 49.7661 109.33 49.711C109.412 49.612 109.458 49.4883 109.46 49.3599V46.7073C109.468 46.5707 109.421 46.4368 109.33 46.3345C109.283 46.2864 109.226 46.249 109.162 46.2251C109.099 46.2011 109.032 46.1911 108.964 46.1958H98.2739C98.2088 46.1904 98.1433 46.1997 98.0823 46.2229C98.0212 46.2462 97.9662 46.2829 97.9214 46.3302C97.8377 46.4294 97.7942 46.5561 97.7995 46.6856V61.6652C97.7935 61.7297 97.8021 61.7947 97.8247 61.8555C97.8473 61.9163 97.8833 61.9712 97.9301 62.0163C98.027 62.0945 98.1493 62.1346 98.2739 62.129H109.156C109.423 62.129 109.568 62.0293 109.591 61.8299C109.643 61.7781 109.673 61.7081 109.674 61.6349V58.9389C109.683 58.8732 109.677 58.8063 109.656 58.7433C109.635 58.6803 109.6 58.623 109.553 58.5757C109.506 58.5284 109.449 58.4924 109.387 58.4704C109.324 58.4485 109.257 58.4412 109.191 58.4491H101.969V55.6838H107.367C107.432 55.6879 107.496 55.6777 107.557 55.6537C107.617 55.6297 107.671 55.5926 107.715 55.545C107.789 55.4662 107.831 55.3627 107.833 55.2547V52.9358C107.838 52.8754 107.829 52.8145 107.805 52.7585C107.782 52.7026 107.745 52.6533 107.698 52.615C107.597 52.5483 107.479 52.5149 107.358 52.5197H101.969V49.8757H108.951ZM52.4919 62.1116H55.7782C56.109 62.1116 56.2744 61.9556 56.2744 61.6479V53.6899H61.1321C61.1984 53.6923 61.2642 53.6781 61.3235 53.6486C61.3828 53.619 61.4337 53.5751 61.4716 53.5209C61.55 53.4221 61.5929 53.3 61.5935 53.1741V50.6082C61.5997 50.5416 61.5904 50.4745 61.5662 50.412C61.542 50.3496 61.5037 50.2936 61.4542 50.2484C61.3565 50.1716 61.2347 50.1317 61.1103 50.1358H56.2744V44.5877H71.8529C71.9247 44.5937 71.997 44.5817 72.0631 44.553C72.1292 44.5242 72.1871 44.4796 72.2315 44.423C72.3134 44.3256 72.3594 44.2033 72.3621 44.0763V41.4236C72.3678 41.2868 72.3229 41.1526 72.2359 41.0466C72.1879 40.9983 72.1299 40.9609 72.0661 40.937C72.0023 40.9131 71.934 40.9031 71.8659 40.9079H52.5224C52.4094 40.914 52.3032 40.9638 52.2264 41.0466C52.1836 41.0949 52.1508 41.1512 52.1299 41.2122C52.109 41.2732 52.1003 41.3377 52.1045 41.402V61.6609C52.0979 61.7162 52.1028 61.7724 52.1191 61.8257C52.1353 61.8791 52.1625 61.9285 52.1989 61.9709C52.2353 62.0133 52.2801 62.0476 52.3306 62.0719C52.381 62.0961 52.4359 62.1096 52.4919 62.1116ZM132.034 22.4738C134.75 20.74 133.857 14.2991 130.04 8.09229C126.223 1.88546 118.209 0 118.209 0C118.209 0 116.39 8.17897 120.207 14.3858C124.025 20.5926 129.322 24.2162 132.034 22.4738ZM145.74 43.0144C147.294 45.2249 151.743 43.1964 155.682 38.4763C159.621 33.7561 160 25.9282 160 25.9282C160 25.9282 153.998 25.7462 150.058 30.4663C146.119 35.1865 144.187 40.7995 145.74 43.0144ZM130.876 35.4032L120.473 50.5215L117.831 46.5729C117.778 46.4523 117.691 46.3496 117.58 46.2773C117.47 46.205 117.341 46.1661 117.208 46.1655H113.456C113.392 46.1984 113.32 46.2148 113.247 46.2131C113.22 46.2079 113.191 46.2136 113.168 46.229C113.144 46.2443 113.127 46.2682 113.121 46.2955C113.129 46.3515 113.147 46.4057 113.173 46.4559C113.2 46.5134 113.233 46.5673 113.273 46.6162L115.746 50.3091L118.196 53.976L113.352 61.1884C113.273 61.2961 113.202 61.4091 113.139 61.5265L112.96 61.8516C112.946 61.8829 112.938 61.9169 112.938 61.9513C112.937 61.9772 112.943 62.0031 112.954 62.0265C112.966 62.0499 112.983 62.0702 113.004 62.0856C113.048 62.1167 113.101 62.1334 113.156 62.1333H117.025C117.145 62.1346 117.261 62.0965 117.356 62.0249C117.461 61.951 117.543 61.8507 117.596 61.7345L120.495 57.4002L123.424 61.7345C123.475 61.8504 123.556 61.9507 123.659 62.0249C123.756 62.0965 123.874 62.1346 123.994 62.1333H127.851C127.981 62.1333 128.047 62.077 128.047 61.9729C128.052 61.899 128.035 61.8252 127.999 61.7606C127.951 61.6643 127.894 61.5729 127.829 61.4875L122.754 53.9543L135.442 35.4119C135.515 35.337 135.558 35.2385 135.564 35.1345C135.564 35.0911 135.538 35.0608 135.485 35.0391C135.43 35.0161 135.371 35.0029 135.311 35.0001H131.498C131.367 35.0009 131.238 35.0394 131.128 35.1108C131.017 35.1823 130.93 35.2837 130.876 35.4032ZM142.58 30.3103C145.292 30.8651 147.947 25.6075 148.504 18.5685C149.062 11.5294 144.587 4.81983 144.587 4.81983C144.587 4.81983 139.251 9.52263 138.676 16.5617C138.101 23.6007 139.864 29.7555 142.58 30.3103ZM71.8311 46.1785H68.6667C68.6005 46.1729 68.5339 46.1826 68.472 46.2066C68.4102 46.2306 68.3547 46.2685 68.3097 46.3172C68.2309 46.4104 68.1891 46.5291 68.1922 46.6509V61.6392C68.1862 61.7027 68.1943 61.7668 68.216 61.8269C68.2377 61.8869 68.2724 61.9415 68.3178 61.9866C68.3631 62.0318 68.4178 62.0664 68.4782 62.088C68.5385 62.1096 68.6028 62.1177 68.6667 62.1116H71.8311C72.1837 62.1116 72.3621 61.9513 72.3621 61.6392V46.6509C72.3633 46.5825 72.3472 46.5148 72.3153 46.4542C72.2833 46.3936 72.2366 46.342 72.1793 46.3042C72.0783 46.2288 71.9571 46.185 71.8311 46.1785ZM87.736 61.7562C87.8017 61.8495 87.8776 61.9353 87.9623 62.0119C88.0296 62.0748 88.1181 62.1104 88.2104 62.1116H91.6491C91.7752 62.1191 91.9 62.0823 92.0016 62.0076C92.0472 61.9691 92.0828 61.9202 92.1055 61.8652C92.1283 61.8102 92.1374 61.7505 92.1322 61.6912V46.6509C92.136 46.585 92.1247 46.5192 92.099 46.4583C92.0734 46.3975 92.0341 46.3433 91.9842 46.2998C91.876 46.2168 91.7421 46.1738 91.6056 46.1785H88.5325C88.4233 46.177 88.3169 46.2138 88.2322 46.2825C88.1421 46.361 88.0821 46.4683 88.0624 46.5859V55.181L85.3333 50.8466C84.4366 49.4191 83.5312 47.9743 82.6172 46.5122C82.5519 46.4013 82.4549 46.3122 82.3386 46.2565C82.2411 46.2085 82.1339 46.1833 82.0252 46.1828H78.5038C78.4377 46.1773 78.3711 46.1869 78.3092 46.2109C78.2473 46.235 78.1918 46.2728 78.1469 46.3215C78.0681 46.4147 78.0263 46.5334 78.0294 46.6552V68.7952C78.0256 68.9138 78.0659 69.0296 78.1425 69.1203C78.1883 69.1689 78.2448 69.2062 78.3074 69.2295C78.3701 69.2528 78.4373 69.2614 78.5038 69.2547H81.5507C81.6199 69.2623 81.6899 69.2559 81.7565 69.2358C81.8231 69.2157 81.8849 69.1823 81.9381 69.1377C82.0171 69.0366 82.0559 68.91 82.0469 68.7822V52.42C83.0074 53.9919 83.9549 55.5479 84.8893 57.0881L87.736 61.7562ZM35.7861 62.1116H46.668C46.9378 62.1116 47.0815 62.0119 47.1032 61.8126C47.1304 61.7877 47.1521 61.7576 47.167 61.724C47.182 61.6905 47.1899 61.6542 47.1903 61.6175V58.9215C47.1994 58.8558 47.1933 58.7889 47.1724 58.726C47.1515 58.663 47.1163 58.6057 47.0696 58.5583C47.023 58.511 46.966 58.475 46.9032 58.4531C46.8403 58.4311 46.7733 58.4238 46.7071 58.4317H39.486V55.6838H44.8833C44.9474 55.6873 45.0114 55.6767 45.0709 55.6527C45.1303 55.6287 45.1837 55.592 45.2272 55.545C45.3013 55.4662 45.3433 55.3627 45.3447 55.2547V52.9358C45.3503 52.8758 45.3413 52.8154 45.3186 52.7596C45.2959 52.7038 45.26 52.6542 45.2141 52.615C45.1139 52.5483 44.9951 52.5149 44.8746 52.5197H39.486V49.8757H46.4503C46.522 49.8798 46.5936 49.867 46.6594 49.8384C46.7252 49.8098 46.7833 49.7661 46.829 49.711C46.9099 49.6116 46.9544 49.4878 46.9552 49.3599V46.7073C46.9638 46.5713 46.9185 46.4375 46.829 46.3345C46.7812 46.286 46.7233 46.2485 46.6594 46.2245C46.5955 46.2006 46.5271 46.1908 46.459 46.1958H35.7861C35.7217 46.1911 35.657 46.2007 35.5968 46.2239C35.5366 46.2472 35.4823 46.2834 35.4379 46.3302C35.3523 46.4283 35.3086 46.5558 35.316 46.6856V61.6652C35.3115 61.7292 35.3204 61.7935 35.3422 61.8539C35.3639 61.9144 35.398 61.9696 35.4423 62.0163C35.5419 62.0876 35.6638 62.1214 35.7861 62.1116ZM150.72 48.1419C145.675 48.9265 141.527 51.7005 141.457 54.3401C141.388 56.9797 145.418 58.4794 150.468 57.6949C155.517 56.9104 159.73 51.4967 159.73 51.4967C159.73 51.4967 155.791 47.3357 150.72 48.1419ZM142.236 61.3531C138.432 58.5531 134.223 57.7903 132.843 59.654C131.464 61.5178 133.427 65.2887 137.235 68.0974C141.044 70.9061 146.65 69.7748 146.65 69.7748C146.65 69.7748 146.045 64.1358 142.236 61.3314V61.3531ZM18.4971 62.1333H21.6963C22.0271 62.1333 22.1926 61.9773 22.1926 61.6695V56.8107H23.9337L26.5453 61.7129C26.5706 61.83 26.6389 61.9336 26.7368 62.0033C26.83 62.0754 26.9452 62.1136 27.0633 62.1116H30.7587C30.8693 62.1181 30.9786 62.0859 31.0678 62.0206C31.1055 61.9879 31.1352 61.9471 31.1548 61.9013C31.1744 61.8556 31.1834 61.8059 31.1809 61.7562C31.1726 61.6291 31.1306 61.5064 31.0591 61.4008C30.9807 61.2664 30.9198 61.1494 30.8675 61.0497L28.0992 55.8485C28.4868 55.6243 28.8462 55.3552 29.17 55.0466C29.495 54.7372 29.7788 54.3876 30.0144 54.0063C30.2559 53.6219 30.4434 53.2062 30.5716 52.771C30.7053 52.3208 30.7728 51.8536 30.7718 51.3841C30.7704 50.6865 30.6221 49.9969 30.3365 49.3599C30.0698 48.7383 29.6839 48.1744 29.2004 47.6998C28.713 47.2248 28.1401 46.8454 27.5116 46.5816C26.8531 46.3057 26.1453 46.1656 25.431 46.1698H18.4666C18.4008 46.1637 18.3344 46.1727 18.2726 46.1959C18.2107 46.2192 18.155 46.2562 18.1097 46.3042C18.0272 46.4038 17.9853 46.5306 17.9922 46.6596V61.6392C17.9856 61.7034 17.9936 61.7682 18.0154 61.8289C18.0373 61.8897 18.0725 61.9448 18.1184 61.9903C18.2236 62.0789 18.3597 62.1225 18.4971 62.1116V62.1333ZM22.1926 49.4422H23.6768C23.8858 49.4422 24.0816 49.4422 24.2557 49.4422L24.8216 49.4769C25.0571 49.5122 25.2834 49.5932 25.4876 49.7153C25.6846 49.8282 25.86 49.9749 26.0055 50.1488C26.1487 50.3258 26.2619 50.5249 26.3407 50.7382C26.4171 50.9436 26.4569 51.1607 26.4582 51.3797C26.4589 51.6095 26.4222 51.8378 26.3494 52.0559C26.282 52.2685 26.1757 52.4668 26.036 52.641C25.8979 52.8171 25.7263 52.9644 25.5311 53.0745C25.3225 53.1941 25.0913 53.2694 24.8521 53.2955L24.5213 53.3258C24.4168 53.3258 24.3036 53.3258 24.173 53.3258H22.1926V49.4422ZM6.08745 62.0379C7.61473 62.4502 9.22805 62.4232 10.7405 61.9599C11.5122 61.7146 12.2449 61.3615 12.9169 60.911C13.0299 60.8498 13.1234 60.7582 13.1868 60.6466C13.2142 60.5826 13.2258 60.5129 13.2205 60.4435C13.2152 60.3741 13.1931 60.307 13.1563 60.2478L11.3151 57.6082C11.2542 57.5142 11.1616 57.445 11.0539 57.4132C10.9382 57.4087 10.8245 57.4438 10.7318 57.5129C10.3752 57.7786 9.97856 57.9864 9.55658 58.1283C9.11939 58.2767 8.66041 58.3514 8.19853 58.3494C7.65396 58.3554 7.11413 58.2482 6.61349 58.0348C6.11285 57.8213 5.66241 57.5063 5.2909 57.1098C4.92629 56.7218 4.64096 56.2669 4.45083 55.7704C4.04463 54.7067 4.04463 53.5314 4.45083 52.4676C4.63975 51.968 4.92515 51.51 5.2909 51.1197C5.64898 50.7295 6.08483 50.418 6.57061 50.2051C7.08332 49.9801 7.63825 49.8663 8.19853 49.8713C8.65718 49.8697 9.11301 49.9429 9.54788 50.0881C9.96554 50.2287 10.3579 50.435 10.7101 50.6992C10.8043 50.7678 10.9202 50.8002 11.0365 50.7902C11.0911 50.7743 11.1418 50.7471 11.1852 50.7106C11.2287 50.674 11.264 50.6288 11.289 50.5779L13.1128 48.0076C13.1557 47.9444 13.1811 47.871 13.1865 47.7949C13.1918 47.7188 13.1769 47.6427 13.1432 47.5741C13.0819 47.4578 12.9882 47.3615 12.8734 47.2967C12.2014 46.8495 11.4685 46.5006 10.697 46.2608C9.19032 45.8044 7.58469 45.7818 6.06569 46.1958C5.37747 46.3881 4.71642 46.6663 4.09826 47.0237C3.48756 47.3803 2.92822 47.8177 2.43551 48.324C1.92923 48.8213 1.49026 49.3823 1.12969 49.9927C0.768694 50.6072 0.489239 51.2658 0.298321 51.9519C0.00449241 53.0077 -0.0733243 54.1115 0.0694902 55.1978C0.212305 56.2841 0.572841 57.3308 1.12969 58.2757C1.49274 58.8792 1.93155 59.4341 2.43551 59.9271C3.43934 60.9339 4.69119 61.6603 6.06569 62.0336L6.08745 62.0379ZM4.12002 65.2584H75.8704V64.3915H4.11131L4.12002 65.2584ZM83.775 65.2584H130.388V64.3915H83.7576L83.775 65.2584Z" fill="#fff"/>
</svg>
