<svg width="43" height="22" viewBox="0 0 43 22" fill="none" xmlns="http://www.w3.org/2000/svg">
<path d="M42.4658 21.5591C42.4658 18.8136 41.925 16.095 40.8744 13.5585C39.8237 11.0219 38.2837 8.7172 36.3424 6.77583C34.401 4.83446 32.0963 3.29448 29.5597 2.24382C27.0232 1.19316 24.3046 0.652389 21.5591 0.65239C18.8136 0.65239 16.0949 1.19316 13.5584 2.24382C11.0219 3.29448 8.71715 4.83446 6.77578 6.77583C4.83441 8.7172 3.29443 11.0219 2.24377 13.5585C1.19311 16.095 0.652344 18.8136 0.652344 21.5591L13.1964 21.5591C13.1964 20.4609 13.4127 19.3735 13.833 18.3589C14.2532 17.3442 14.8692 16.4224 15.6458 15.6458C16.4223 14.8693 17.3442 14.2533 18.3588 13.833C19.3734 13.4127 20.4609 13.1964 21.5591 13.1964C22.6573 13.1964 23.7447 13.4127 24.7593 13.833C25.7739 14.2533 26.6958 14.8693 27.4724 15.6458C28.2489 16.4224 28.8649 17.3442 29.2852 18.3589C29.7055 19.3735 29.9218 20.4609 29.9218 21.5591H42.4658Z" fill="#7F3DEA"/>
</svg>
